<svg width="32" height="32" viewBox="0 0 32 32" fill="none" xmlns="http://www.w3.org/2000/svg">
<circle cx="16" cy="10.625" r="3.875" stroke="#4CD60E"/>
<path d="M23.6226 22.9334C23.5661 22.9527 23.4875 22.9748 23.382 22.9974C23.0115 23.0766 22.4494 23.1338 21.7187 23.1726C20.2648 23.2498 18.2492 23.25 16 23.25C13.7508 23.25 11.7352 23.2498 10.2813 23.1726C9.55059 23.1338 8.98855 23.0766 8.61803 22.9974C8.5125 22.9748 8.43389 22.9527 8.37739 22.9334C8.47887 18.8782 11.8003 16.125 16 16.125C20.1997 16.125 23.5211 18.8782 23.6226 22.9334ZM23.7321 22.8852C23.7322 22.8852 23.731 22.8861 23.7282 22.8878C23.7306 22.886 23.732 22.8852 23.7321 22.8852ZM8.2679 22.8852C8.268 22.8852 8.2694 22.886 8.27181 22.8878C8.26901 22.8861 8.2678 22.8852 8.2679 22.8852Z" stroke="#4CD60E"/>
<circle cx="16" cy="16" r="15.5" stroke="#4CD60E"/>
</svg>
