<svg xmlns="http://www.w3.org/2000/svg" width="20" height="20" viewBox="0 0 20 20" fill="none">
<g clip-path="url(#clip0_1873_20319)">
<path d="M10 20C4.486 20 0 15.514 0 10C0 4.486 4.486 0 10 0C15.514 0 20 4.486 20 10C20 15.514 15.514 20 10 20ZM5.466 16.922C6.77 17.778 8.328 18.278 10 18.278C11.672 18.278 13.23 17.78 14.534 16.924L12.11 14.5H7.89L5.466 16.924V16.922ZM13.354 13.304L15.874 15.824C17.358 14.328 18.276 12.268 18.276 9.998C18.276 9.518 18.234 9.046 18.156 8.588L14.498 9.776L13.352 13.302L13.354 13.304ZM1.844 8.59C1.766 9.048 1.724 9.518 1.724 10C1.724 12.27 2.642 14.328 4.126 15.826L6.646 13.306L5.5 9.78L1.842 8.592L1.844 8.59ZM8.286 12.774H11.714L12.774 9.514L10 7.5L7.226 9.514L8.286 12.774ZM10.862 5.996L13.86 8.174L17.686 6.93C16.566 4.136 13.966 2.088 10.86 1.766V5.996H10.862ZM2.314 6.932L6.14 8.176L9.138 5.998V1.768C6.032 2.09 3.432 4.138 2.312 6.932H2.314Z" fill="#B4B7BD"/>
</g>
<defs>
<clipPath id="clip0_1873_20319">
<rect width="20" height="20" fill="white"/>
</clipPath>
</defs>
</svg>