<svg width="16" height="16" viewBox="0 0 16 16" fill="none" xmlns="http://www.w3.org/2000/svg">
<path fill-rule="evenodd" clip-rule="evenodd" d="M11.8125 10.6129L15.7567 14.5735C16.0904 14.9085 16.0794 15.4428 15.7326 15.7649C15.5694 15.9166 15.3544 16 15.1278 16C14.8883 16 14.6649 15.9082 14.4988 15.7416L10.5246 11.751C9.39609 12.5167 8.07619 12.92 6.69113 12.92C3.0017 12.92 0 10.022 0 6.45999C0 2.89801 3.0017 0 6.69113 0C10.3806 0 13.3823 2.89801 13.3823 6.45999C13.3823 7.98455 12.8266 9.44901 11.8125 10.6129ZM11.6368 6.45998C11.6368 3.82711 9.41822 1.6852 6.69115 1.6852C3.96408 1.6852 1.74554 3.82711 1.74554 6.45998C1.74554 9.09284 3.96408 11.2348 6.69115 11.2348C9.41822 11.2348 11.6368 9.09284 11.6368 6.45998Z" fill="white"/>
</svg>
