<svg width="18" height="18" viewBox="0 0 18 18" fill="none" xmlns="http://www.w3.org/2000/svg">
<g id="Frame 1">
<g id="account">
<circle id="Ellipse 44" cx="9" cy="4.625" r="3.875" stroke="white"/>
<path id="Ellipse 45" d="M16.6226 16.9334C16.5661 16.9527 16.4875 16.9748 16.382 16.9974C16.0115 17.0766 15.4494 17.1338 14.7187 17.1726C13.2648 17.2498 11.2492 17.25 9 17.25C6.75077 17.25 4.73521 17.2498 3.28129 17.1726C2.55059 17.1338 1.98855 17.0766 1.61803 16.9974C1.5125 16.9748 1.43389 16.9527 1.37739 16.9334C1.47887 12.8782 4.80033 10.125 9 10.125C13.1997 10.125 16.5211 12.8782 16.6226 16.9334ZM16.7321 16.8852C16.7322 16.8852 16.731 16.8861 16.7282 16.8878C16.7306 16.886 16.732 16.8852 16.7321 16.8852ZM1.2679 16.8852C1.268 16.8852 1.2694 16.886 1.27181 16.8878C1.26901 16.8861 1.2678 16.8852 1.2679 16.8852Z" stroke="white"/>
</g>
</g>
</svg>
