<svg xmlns="http://www.w3.org/2000/svg" id="a" data-name="Layer 1" viewBox="0 0 148 101">
  <defs>
    <style>
      .b {
        fill: #57dc1c;
        stroke-width: 0px;
      }
    </style>
  </defs>
  <path class="b" d="m131.72,14.41C115.22,4.21,94.72.21,75.72,0c-20.2-.2-42.1,3.9-59.6,14.9-7.5,4.7-21.3,15.8-14.1,25.6,8.4,11.5,26.9,9.9,38.9,6.7,6.1-1.6,23.3-6.1,22.8-14-.5-7.4-14.6-7-20.1-6.5-8.7.7-13.6-4.9-6.3-9.7,12.1-8.1,66.6-14.6,60.9,9.1-1.9,8-16.7,11.8-23.3,15.5-6.4,3.6-14.7,8.9-15.9,16-.6,3.3.9,7.3,3.6,10.1,1.9,1.9,4.3,3.3,7.2,3.4,6.6.3,11.5-5.4,14.8-9.7,8.8-11.4,22-10.8,36.1-12.4,8.6-1,21.5-2.6,25.7-10.3,5.3-9.6-6.6-19.3-14.7-24.3Z"/>
  <path class="b" d="m77.82,92.61c0,4.8-3.9,8.7-8.7,8.7s-8.7-3.9-8.7-8.7,3.9-8.7,8.7-8.7,8.7,3.9,8.7,8.7Z"/>
</svg>