<svg xmlns="http://www.w3.org/2000/svg" id="a" data-name="b" viewBox="0 0 396 102">
  <defs>
    <style>
      .c {
        fill: #fff;
      }

      .c, .d {
        stroke-width: 0px;
      }

      .d {
        fill: #57dc1c;
      }
    </style>
  </defs>
  <g id="b" data-name="c">
    <g>
      <path class="d" d="m.9,71.01c0-.2-.2-.8-.5-1.9S0,67.21,0,66.61C0,65.41.4,64.31,1.2,63.51c.8-.8,1.8-1.2,3.1-1.2,2.5,0,4,1.3,4.5,3.9l4.4,20.6h.1l6.3-19.9c.5-1.6,1.2-2.8,2-3.5s1.8-1,3-1,2.1.3,2.9,1c.7.7,1.4,1.8,1.9,3.5l6.3,19.9h.1l4.5-20.5c.5-2.6,2-3.9,4.5-3.9,1.3,0,2.3.4,3.1,1.2s1.2,1.8,1.2,3.1c0,.9-.3,2.4-.9,4.4-.3,1.1-.7,2.9-1.3,5.2-.6,2.4-1.4,5.9-2.6,10.6s-1.9,7.7-2.2,8.9c-.5,2.1-1.2,3.5-2.2,4.2s-2.2,1.1-3.7,1.1c-3.1,0-5.1-1.6-6.1-4.7l-5.6-17.5h-.1l-5.5,17.5c-.6,1.6-1.3,2.8-2.3,3.5-1,.8-2.3,1.2-3.9,1.2-1.4,0-2.6-.3-3.6-1s-1.7-2-2.1-3.9c-.8-3.6-1.7-7.2-2.6-10.9-.9-3.7-1.7-7-2.5-9.9-.7-2.9-1.1-4.3-1.2-4.3h.2v-.1h0Z"/>
      <path class="d" d="m50.6,96.81v-32.9c0-1.2.4-2.3,1.2-3.1.8-.9,1.8-1.3,3-1.3s2.2.4,3,1.3c.8.8,1.2,1.9,1.2,3.1v9.6h.1c2.5-1.4,4.8-2.1,7.1-2.1,2,0,3.7.4,5.3,1.1,1.6.7,2.8,1.8,3.7,3.3.9,1.5,1.4,3.3,1.4,5.5v15.5c0,1.2-.4,2.2-1.2,3.1-.8.8-1.8,1.2-3.1,1.2-1.2,0-2.2-.4-2.9-1.2-.8-.8-1.1-1.8-1.1-3v-13.2c0-1.5-.4-2.7-1.3-3.6-.8-.9-2-1.4-3.4-1.4s-2.5.5-3.3,1.4-1.3,2.1-1.3,3.6v13.1c0,1.2-.4,2.2-1.2,3s-1.8,1.2-3,1.2-2.2-.4-3-1.2-1.2-1.8-1.2-3h0Z"/>
      <path class="d" d="m93.4,101.61c-2.8,0-5.3-.7-7.4-2s-3.8-3.1-4.9-5.4-1.7-4.9-1.7-7.7c0-2.1.3-4.1,1-5.9s1.6-3.5,2.8-4.8c1.2-1.4,2.7-2.5,4.5-3.2,1.7-.8,3.7-1.1,5.8-1.1,2.8,0,5.2.7,7.3,2.1s3.8,3.2,4.9,5.5c1.2,2.3,1.7,4.8,1.7,7.5,0,2-.4,3.9-1,5.8-.7,1.8-1.6,3.4-2.8,4.8-1.2,1.4-2.7,2.5-4.4,3.3s-3.7,1.1-5.8,1.1h0Zm0-8c1.2,0,2.2-.3,3.1-.9s1.5-1.5,1.9-2.5c.4-1.1.7-2.3.7-3.6,0-2-.5-3.7-1.5-5s-2.4-2-4.2-2.1c-1.8,0-3.2.7-4.2,2-1,1.4-1.5,3-1.5,5s.5,3.6,1.5,5,2.3,2.1,4,2.1h.2Z"/>
      <path class="c" d="m109.2,73.41c.1-5.2,2.7-8.7,7.7-10.6,2-.6,4.1-1,6.2-1,1.4,0,2.9.2,4.5.5,1.6.4,3,1,4.2,1.9s1.8,2,1.8,3.5c0,1.2-.4,2.1-1.1,2.8-.7.7-1.7,1.1-2.9,1.2-.7-.1-1.8-.4-3.3-.8s-2.8-.7-3.7-.7c-1,0-2,.2-2.8.7s-1.2,1.2-1.4,2.1c0,.9.3,1.6.8,2s1.6.8,3.2,1.4c1.5.5,3.1,1,4.6,1.5s2.9,1.2,4.2,2,2.4,2,3.3,3.4c.9,1.5,1.3,3.3,1.4,5.6,0,3.3-.9,6-2.7,8.2-2.8,3.1-6.7,4.6-11.6,4.6-4.1,0-7.5-.8-10.4-2.4-1.7-.9-2.6-2.2-2.7-3.9.1-1.2.6-2.3,1.3-3.2s1.7-1.4,2.9-1.4c.8.1,1.7.3,2.7.6s2,.7,3,1,1.9.5,2.7.6c.4,0,.6,0,.9.1,1.2,0,2.3-.3,3.2-.9.9-.6,1.4-1.4,1.4-2.5s-.4-2-1.3-2.6-2-1.1-3.4-1.6c-.2-.1-1.1-.3-2.5-.8-1.5-.4-2.8-.9-3.9-1.4-1.2-.5-2.2-1.1-3.1-1.8-1.1-.9-1.9-2-2.4-3.2-.5-1.3-.8-2.9-.8-4.9h0Z"/>
      <path class="c" d="m141.3,76.21c2.8-3.2,6.6-4.8,11.4-4.8,1.4.1,2.8.3,4.1.7,1.3.3,2.5.9,3.5,1.7,1,.8,1.5,1.9,1.5,3.2,0,1-.3,1.8-.9,2.6-.6.7-1.3,1.1-2.3,1.2-.1,0-.3,0-.4.1-.6-.1-1.5-.3-2.8-.8-1.3-.4-2.3-.7-3.1-.7-1.9,0-3.4.7-4.5,2s-1.7,3-1.7,5.2c0,3.2,1.1,5.4,3.4,6.5.5.2,1.3.4,2.4.5,1.4-.1,2.8-.4,4-.8.2-.1.5-.2,1.1-.4.5-.2.9-.3,1.1-.3.6,0,1.2.2,1.8.5s1,.8,1.3,1.4.5,1.2.5,1.8c0,2.4-2.1,4.2-6.4,5.3-1.6.3-2.9.4-3.8.4-2,0-3.8-.4-5.5-1.2s-3.1-1.9-4.4-3.3c-1.2-1.4-2.2-3-2.9-4.8s-1-3.7-1.1-5.7c.1-2.1.4-4,1-5.9.8-1.7,1.6-3.2,2.7-4.4h0Z"/>
      <path class="c" d="m176.6,101.61c-2.8,0-5.3-.7-7.4-2-2.1-1.3-3.8-3.1-4.9-5.4-1.1-2.3-1.7-4.9-1.7-7.7,0-2.1.3-4.1,1-5.9s1.6-3.5,2.8-4.8c1.2-1.4,2.7-2.5,4.5-3.2,1.7-.8,3.7-1.1,5.8-1.1,2.8,0,5.2.7,7.3,2.1s3.8,3.2,4.9,5.5c1.2,2.3,1.7,4.8,1.7,7.5,0,2-.4,3.9-1,5.8-.7,1.8-1.6,3.4-2.8,4.8s-2.7,2.5-4.4,3.3c-1.8.7-3.7,1.1-5.8,1.1h0Zm0-8c1.2,0,2.2-.3,3.1-.9.9-.6,1.5-1.5,1.9-2.5.4-1.1.7-2.3.7-3.6,0-2-.5-3.7-1.5-5s-2.4-2-4.2-2.1c-1.8,0-3.2.7-4.2,2-1,1.4-1.5,3-1.5,5s.5,3.6,1.5,5,2.3,2.1,4,2.1h.2Z"/>
      <path class="c" d="m193.4,76.41c0-1.4.4-2.5,1.2-3.2.8-.8,1.8-1.1,2.9-1.1.9,0,1.8.2,2.5.7.8.5,1.3,1.1,1.6,2,1.7-2.2,3.8-3.3,6.1-3.3,1.2.1,2.1.5,2.8,1.4s1.1,1.9,1.1,3.1-.4,2.1-1.3,2.7c-.8.6-2.1,1.1-3.7,1.6-1.6.5-2.7,1-3.3,1.4-1.2.8-1.8,2.3-1.8,4.4v10.5c0,1.6-.4,2.7-1.3,3.5-.9.7-2,1.1-3.3,1.1-1.1-.2-2-.7-2.7-1.4-.7-.8-1-1.8-1-3.1v-20.3h.2Z"/>
      <path class="c" d="m234.1,89.31h-15c0,1.1.5,2.2,1.6,3.2,1,1,2.7,1.5,5.1,1.5,1.2,0,2.1-.1,2.9-.4.8-.3,1.8-.7,3-1.3s2.1-.9,2.6-.9c.9,0,1.8.3,2.4,1,.7.7,1,1.6,1,2.7,0,1.3-.6,2.4-1.9,3.5-1.3,1-2.9,1.8-4.9,2.4s-4.1.8-6.2.8c-2.9,0-5.5-.7-7.7-2s-3.9-3.1-5.1-5.4c-1.2-2.3-1.8-4.8-1.8-7.7,0-2,.4-3.9,1.1-5.7.7-1.8,1.7-3.4,3-4.9,1.3-1.4,2.9-2.5,4.7-3.3s3.7-1.2,5.8-1.2c2.6,0,5,.7,7,2s3.6,3.1,4.8,5.3c1.1,2.2,1.7,4.5,1.7,7,0,1.4-.3,2.3-1,2.9-.7.2-1.7.5-3.1.5h0Zm-15-5.8h10.7c0-.6-.2-1.4-.7-2.2s-1.1-1.5-1.9-2c-.8-.6-1.8-.8-2.8-.8-1.5,0-2.7.6-3.8,1.7-1,1.2-1.5,2.3-1.5,3.3h0Z"/>
      <path class="c" d="m240.9,78.31c1.1-2,2.5-3.6,4.3-4.9,1.8-1.2,3.8-1.9,6-2,3,0,5.5.8,7.4,2.4v-10c0-1.3.4-2.3,1.3-3.1.8-.8,1.8-1.1,2.9-1.1,1.2,0,2.2.4,3,1.2s1.2,1.8,1.2,3.2v32.8c0,1-.3,2-1,2.8s-1.6,1.3-2.8,1.4c-1.2,0-2.1-.3-2.9-.9-.7-.6-1.2-1.2-1.4-1.8-1.6,2.2-4,3.3-7.1,3.3-2,0-3.7-.4-5.3-1.2-1.6-.8-2.9-2-4-3.4s-2-3-2.6-4.8-.9-3.6-1-5.5c0-3.4.7-6.2,2-8.4h0Zm11.9,1.2c-1.8,0-3.2.7-4.2,2.1s-1.5,3-1.5,5,.5,3.6,1.6,5c1,1.4,2.4,2.1,4.2,2.1s3.2-.7,4.2-2,1.5-3,1.5-5c0-2.1-.5-3.8-1.5-5.1-1-1.5-2.4-2.1-4.3-2.1h0Z"/>
      <path class="c" d="m301.6,76.21c2.8-3.2,6.6-4.8,11.4-4.8,1.4.1,2.8.3,4.1.7,1.3.3,2.5.9,3.5,1.7,1,.8,1.5,1.9,1.5,3.2,0,1-.3,1.8-.9,2.6-.6.7-1.3,1.1-2.3,1.2-.1,0-.3,0-.4.1-.6-.1-1.5-.3-2.8-.8-1.3-.4-2.3-.7-3.1-.7-1.9,0-3.4.7-4.5,2s-1.7,3-1.7,5.2c0,3.2,1.1,5.4,3.4,6.5.5.2,1.3.4,2.4.5,1.4-.1,2.8-.4,4-.8.2-.1.5-.2,1.1-.4.5-.2.9-.3,1.1-.3.6,0,1.2.2,1.8.5.6.3,1,.8,1.3,1.4s.5,1.2.5,1.8c0,2.4-2.1,4.2-6.4,5.3-1.6.3-2.9.4-3.8.4-2,0-3.8-.4-5.5-1.2s-3.1-1.9-4.4-3.3c-1.2-1.4-2.2-3-2.9-4.8-.7-1.8-1-3.7-1.1-5.7.1-2.1.4-4,1-5.9.8-1.7,1.6-3.2,2.7-4.4h0Z"/>
      <path class="c" d="m336.9,101.61c-2.8,0-5.3-.7-7.4-2s-3.8-3.1-4.9-5.4-1.7-4.9-1.7-7.7c0-2.1.3-4.1,1-5.9s1.6-3.5,2.8-4.8c1.2-1.4,2.7-2.5,4.5-3.2,1.7-.8,3.7-1.1,5.8-1.1,2.8,0,5.2.7,7.3,2.1,2.1,1.4,3.8,3.2,4.9,5.5,1.2,2.3,1.7,4.8,1.7,7.5,0,2-.4,3.9-1,5.8-.7,1.8-1.6,3.4-2.8,4.8-1.2,1.4-2.7,2.5-4.4,3.3-1.8.7-3.7,1.1-5.8,1.1h0Zm0-8c1.2,0,2.2-.3,3.1-.9s1.5-1.5,1.9-2.5c.4-1.1.7-2.3.7-3.6,0-2-.5-3.7-1.5-5s-2.4-2-4.2-2.1c-1.8,0-3.2.7-4.2,2-1,1.4-1.5,3-1.5,5s.5,3.6,1.5,5,2.3,2.1,4,2.1h.2Z"/>
      <path class="c" d="m353.6,96.81v-20.5c0-1.2.4-2.2,1.2-3.1.8-.9,1.8-1.3,3-1.3,1.1,0,2,.3,2.7.8s1.2,1.2,1.5,1.9c.7-1,1.7-1.8,3-2.4s2.7-.9,4.2-.9c3.4,0,6,1.2,7.7,3.5.6-.4,1.3-.9,2.1-1.5.8-.6,1.8-1.1,2.9-1.4,1.1-.4,2.3-.6,3.8-.6,1.8.1,3.4.5,4.8,1.2s2.6,1.7,3.5,3.2c.9,1.4,1.3,3.3,1.3,5.5v15.6c0,1.2-.4,2.2-1.2,3.1-.8.8-1.8,1.2-3,1.2s-2.2-.4-3-1.2-1.2-1.8-1.2-3v-13.2c0-1.4-.4-2.6-1.1-3.6s-1.8-1.5-3.1-1.5-2.3.5-3.1,1.5c-.7,1-1.1,2.2-1.1,3.6v13.1c0,1.2-.4,2.2-1.2,3-.8.8-1.8,1.2-3,1.2s-2.2-.4-3-1.2-1.2-1.8-1.2-3v-13.2c0-1.4-.4-2.6-1.1-3.6s-1.8-1.5-3-1.5c-1.3,0-2.3.5-3.1,1.5-.8,1-1.1,2.2-1.1,3.6v13.2c0,1.2-.4,2.2-1.2,3-.8.8-1.8,1.2-3,1.2s-2.2-.4-3-1.2c-.6-.8-1-1.8-1-3h0Z"/>
    </g>
    <path class="d" d="m346.7,14.41C330.2,4.21,309.7.21,290.7,0c-20.2-.2-42.1,3.9-59.6,14.9-7.5,4.7-21.3,15.8-14.1,25.6,8.4,11.5,26.9,9.9,38.9,6.7,6.1-1.6,23.3-6.1,22.8-14-.5-7.4-14.6-7-20.1-6.5-8.7.7-13.6-4.9-6.3-9.7,12.1-8.1,66.6-14.6,60.9,9.1-1.9,8-16.7,11.8-23.3,15.5-6.4,3.6-14.7,8.9-15.9,16-.6,3.3.9,7.3,3.6,10.1,1.9,1.9,4.3,3.3,7.2,3.4,6.6.3,11.5-5.4,14.8-9.7,8.8-11.4,22-10.8,36.1-12.4,8.6-1,21.5-2.6,25.7-10.3,5.3-9.6-6.6-19.3-14.7-24.3h0Z"/>
    <path class="d" d="m292.8,92.61c0,4.8-3.9,8.7-8.7,8.7s-8.7-3.9-8.7-8.7,3.9-8.7,8.7-8.7,8.7,3.9,8.7,8.7Z"/>
  </g>
</svg>