<svg xmlns="http://www.w3.org/2000/svg" width="24" height="14" viewBox="0 0 24 14" fill="none">
  <path d="M23.5937 6.52196C23.3822 6.27558 18.3608 0.472778 12.0028 0.472778C11.7968 0.472778 11.5946 0.480133 11.3905 0.491165C11.3372 0.494842 11.2838 0.500358 11.2287 0.504035C11.0798 0.515067 10.9327 0.526099 10.7856 0.542647C10.7249 0.550001 10.6661 0.559196 10.6072 0.56655C10.4675 0.584937 10.3296 0.603323 10.1917 0.625387C10.1273 0.636419 10.063 0.649289 9.99862 0.66216C9.86992 0.686062 9.74121 0.709966 9.61434 0.737545C9.53712 0.754093 9.46357 0.774319 9.38635 0.790867C9.27603 0.816608 9.16571 0.844187 9.05723 0.873606C8.95978 0.899347 8.86417 0.928765 8.76672 0.956345C8.68582 0.980247 8.60492 1.00231 8.52586 1.02805C8.39531 1.0685 8.26477 1.11263 8.13606 1.1586C8.09929 1.17147 8.06068 1.18434 8.0239 1.19721C6.33601 1.79845 4.87244 2.67733 3.76925 3.47163C2.6826 4.25306 1.83682 5.02346 1.32016 5.53093C0.785107 6.05494 0.512985 6.35832 0.375086 6.56057L0 7.00001L0.375086 7.43945C0.512985 7.6417 0.785107 7.94508 1.32016 8.4691C1.83682 8.97657 2.6826 9.74513 3.76925 10.5284C4.87244 11.3209 6.33601 12.2016 8.0239 12.8028C8.06068 12.8157 8.09929 12.8286 8.13606 12.8414C8.26477 12.8856 8.39347 12.9297 8.52586 12.972C8.60492 12.9977 8.68582 13.0198 8.76672 13.0437C8.86233 13.0713 8.95978 13.1007 9.05723 13.1264C9.16571 13.1558 9.27603 13.1816 9.38635 13.2092C9.46173 13.2275 9.53712 13.2459 9.61434 13.2625C9.74121 13.2901 9.86992 13.314 9.99862 13.3379C10.063 13.3489 10.1273 13.3636 10.1917 13.3746C10.3296 13.3985 10.4675 13.4169 10.6072 13.4335C10.6661 13.4408 10.7249 13.4519 10.7856 13.4574C10.9327 13.4739 11.0798 13.485 11.2287 13.496C11.282 13.4997 11.3353 13.507 11.3905 13.5089C11.5927 13.5199 11.7968 13.5272 12.0028 13.5272C18.3608 13.5272 23.384 7.72444 23.5937 7.47806L24 7.00001L23.5937 6.52196ZM6.88761 3.30799C6.1356 4.34683 5.69065 5.62102 5.69065 6.99817C5.69065 8.37533 6.1356 9.64952 6.88761 10.6884C4.56171 9.48772 2.76718 7.81086 1.97472 6.99817C2.76718 6.18549 4.56171 4.50863 6.88761 3.30799ZM12.0028 11.8394C9.33303 11.8394 7.16341 9.66791 7.16341 7.00001C7.16341 4.33212 9.33487 2.16067 12.0028 2.16067C14.6707 2.16067 16.8421 4.33212 16.8421 7.00001C16.8421 9.66791 14.6707 11.8394 12.0028 11.8394ZM17.1142 10.6957C17.8681 9.65687 18.3149 8.37901 18.3149 7.00001C18.3149 5.62102 17.8699 4.34867 17.1179 3.30983C19.4438 4.51047 21.2383 6.18917 22.0308 7.00001C21.2383 7.8127 19.4456 9.49507 17.1142 10.6957Z" fill="#B4B7BD"/>
  <path d="M12.0029 9.18257C13.2083 9.18257 14.1854 8.20544 14.1854 7.00008C14.1854 5.79473 13.2083 4.8176 12.0029 4.8176C10.7976 4.8176 9.82043 5.79473 9.82043 7.00008C9.82043 8.20544 10.7976 9.18257 12.0029 9.18257Z" fill="#B4B7BD"/>
</svg>