<svg width="67" height="70" viewBox="0 0 67 70" fill="none" xmlns="http://www.w3.org/2000/svg">
<path d="M7.46158 63.3381C6.15761 63.3381 5.00658 63.1046 4.00849 62.6378C3.01039 62.1709 2.22962 61.5029 1.66618 60.6335C1.10274 59.7642 0.821015 58.7178 0.821015 57.4944V56.8182H3.96019V57.4944C3.96019 58.5086 4.27411 59.2732 4.90194 59.7884C5.52978 60.2874 6.38299 60.537 7.46158 60.537C8.55627 60.537 9.36923 60.3196 9.90048 59.885C10.4478 59.4503 10.7215 58.8949 10.7215 58.2188C10.7215 57.7519 10.5847 57.3736 10.311 57.0839C10.0534 56.7941 9.66705 56.5607 9.15191 56.3836C8.65286 56.1904 8.04112 56.0133 7.31669 55.8523L6.7613 55.7316C5.60222 55.474 4.60412 55.1521 3.76701 54.7657C2.946 54.3632 2.31011 53.84 1.85936 53.1961C1.4247 52.5522 1.20738 51.7151 1.20738 50.6848C1.20738 49.6545 1.44885 48.7771 1.9318 48.0527C2.43085 47.3122 3.12308 46.7487 4.00849 46.3624C4.90999 45.9599 5.96443 45.7587 7.17181 45.7587C8.37919 45.7587 9.44972 45.968 10.3834 46.3865C11.3332 46.789 12.0738 47.4007 12.605 48.2217C13.1523 49.0266 13.426 50.0408 13.426 51.2643V51.9887H10.2868V51.2643C10.2868 50.6204 10.1581 50.1052 9.90048 49.7189C9.659 49.3164 9.30484 49.0266 8.83799 48.8496C8.37114 48.6564 7.81574 48.5598 7.17181 48.5598C6.20591 48.5598 5.48953 48.7449 5.02268 49.1152C4.57193 49.4693 4.34655 49.9603 4.34655 50.5882C4.34655 51.0067 4.45119 51.3609 4.66047 51.6507C4.88585 51.9404 5.21586 52.1819 5.65052 52.3751C6.08517 52.5683 6.64056 52.7373 7.31669 52.8822L7.87209 53.0029C9.07946 53.2605 10.1259 53.5905 11.0113 53.993C11.9128 54.3954 12.613 54.9267 13.1121 55.5867C13.6111 56.2467 13.8607 57.0919 13.8607 58.1222C13.8607 59.1525 13.595 60.0621 13.0638 60.8509C12.5487 61.6236 11.8081 62.2353 10.8422 62.6861C9.89243 63.1207 8.76555 63.3381 7.46158 63.3381ZM21.9608 63.3381C20.8018 63.3381 19.7473 63.0966 18.7975 62.6136C17.8638 62.1307 17.1233 61.4304 16.5759 60.5128C16.0286 59.5952 15.7549 58.4844 15.7549 57.1805V56.8424C15.7549 55.5384 16.0286 54.4276 16.5759 53.51C17.1233 52.5924 17.8638 51.8921 18.7975 51.4092C19.7473 50.9262 20.8018 50.6848 21.9608 50.6848C23.1038 50.6848 24.0858 50.886 24.9068 51.2885C25.7278 51.6909 26.3879 52.2463 26.8869 52.9546C27.4021 53.6469 27.7401 54.4357 27.9011 55.3211L24.9551 55.9489C24.8907 55.466 24.7458 55.0313 24.5205 54.645C24.2951 54.2586 23.9731 53.9527 23.5546 53.7274C23.1521 53.502 22.645 53.3893 22.0333 53.3893C21.4215 53.3893 20.8661 53.5261 20.3671 53.7998C19.8842 54.0574 19.4978 54.4518 19.208 54.983C18.9343 55.4982 18.7975 56.1341 18.7975 56.8907V57.1322C18.7975 57.8888 18.9343 58.5327 19.208 59.064C19.4978 59.5791 19.8842 59.9735 20.3671 60.2472C20.8661 60.5048 21.4215 60.6335 22.0333 60.6335C22.9509 60.6335 23.6431 60.4001 24.11 59.9333C24.5929 59.4503 24.8988 58.8225 25.0276 58.0498L27.9736 58.75C27.7643 59.6033 27.4021 60.384 26.8869 61.0923C26.3879 61.7846 25.7278 62.3319 24.9068 62.7344C24.0858 63.1368 23.1038 63.3381 21.9608 63.3381ZM36.1822 63.3381C34.9909 63.3381 33.9204 63.0966 32.9706 62.6136C32.0208 62.1307 31.2722 61.4304 30.7249 60.5128C30.1775 59.5952 29.9039 58.4925 29.9039 57.2046V56.8182C29.9039 55.5304 30.1775 54.4276 30.7249 53.51C31.2722 52.5924 32.0208 51.8921 32.9706 51.4092C33.9204 50.9262 34.9909 50.6848 36.1822 50.6848C37.3735 50.6848 38.444 50.9262 39.3938 51.4092C40.3436 51.8921 41.0922 52.5924 41.6395 53.51C42.1869 54.4276 42.4606 55.5304 42.4606 56.8182V57.2046C42.4606 58.4925 42.1869 59.5952 41.6395 60.5128C41.0922 61.4304 40.3436 62.1307 39.3938 62.6136C38.444 63.0966 37.3735 63.3381 36.1822 63.3381ZM36.1822 60.6335C37.1159 60.6335 37.8886 60.3357 38.5004 59.7401C39.1121 59.1283 39.418 58.259 39.418 57.1322V56.8907C39.418 55.7638 39.1121 54.9025 38.5004 54.3069C37.9047 53.6952 37.132 53.3893 36.1822 53.3893C35.2485 53.3893 34.4758 53.6952 33.864 54.3069C33.2523 54.9025 32.9464 55.7638 32.9464 56.8907V57.1322C32.9464 58.259 33.2523 59.1283 33.864 59.7401C34.4758 60.3357 35.2485 60.6335 36.1822 60.6335ZM45.269 63V51.0228H48.2633V52.3751H48.698C48.8751 51.8921 49.1648 51.538 49.5673 51.3126C49.9858 51.0872 50.4688 50.9745 51.0161 50.9745H52.465V53.6791H50.9678C50.1951 53.6791 49.5592 53.8883 49.0602 54.3069C48.5611 54.7094 48.3116 55.3372 48.3116 56.1904V63H45.269ZM59.876 63.3381C58.6847 63.3381 57.6303 63.0885 56.7127 62.5895C55.8112 62.0743 55.1028 61.358 54.5877 60.4404C54.0887 59.5067 53.8391 58.412 53.8391 57.1563V56.8665C53.8391 55.6109 54.0887 54.5242 54.5877 53.6066C55.0868 52.6729 55.787 51.9565 56.6885 51.4575C57.59 50.9423 58.6364 50.6848 59.8277 50.6848C61.0029 50.6848 62.0251 50.9504 62.8944 51.4816C63.7638 51.9968 64.4399 52.7212 64.9228 53.6549C65.4058 54.5725 65.6473 55.6431 65.6473 56.8665V57.9049H56.93C56.9622 58.7259 57.2681 59.394 57.8476 59.9091C58.4272 60.4243 59.1355 60.6818 59.9726 60.6818C60.8258 60.6818 61.4536 60.4967 61.8561 60.1264C62.2586 59.7562 62.5644 59.3457 62.7737 58.8949L65.2609 60.1989C65.0355 60.6174 64.7055 61.0762 64.2709 61.5753C63.8523 62.0582 63.2889 62.4768 62.5805 62.831C61.8722 63.169 60.9707 63.3381 59.876 63.3381ZM56.9542 55.635H62.5564C62.492 54.9428 62.2103 54.3874 61.7112 53.9688C61.2283 53.5503 60.5924 53.341 59.8036 53.341C58.9825 53.341 58.3306 53.5503 57.8476 53.9688C57.3647 54.3874 57.0668 54.9428 56.9542 55.635Z" fill="white"/>
<path d="M15 1.64912V15.9908C15 16.8831 15.5991 17.6064 16.3395 17.6064H30.2676C30.623 17.6064 30.9624 17.4351 31.213 17.1332L36.227 10.5809C36.6325 10.0897 36.6667 9.31005 36.3045 8.77153L31.2221 0.628417C30.967 0.252131 30.5865 0.0335693 30.1833 0.0335693H16.3395C15.5991 0.0335693 15 0.756851 15 1.64912Z" fill="white"/>
<path d="M49.4512 0.42584L38.5688 15.0672C37.8945 16.0068 38.3775 17.6381 39.3206 17.6088H50.2029C50.7702 17.5908 51.2212 16.6107 51.2212 15.804V1.48485C51.2212 0.171227 50.1095 -0.49347 49.4512 0.42584Z" fill="white"/>
<path d="M51.2212 37.6241V23.2824C51.2212 22.3902 50.6335 21.6669 49.9113 21.6669H35.8693C35.5208 21.6669 35.1882 21.8381 34.9422 22.14L29.8325 28.6924C29.4361 29.1836 29.4019 29.9632 29.7573 30.5017L34.9331 38.6471C35.1814 39.0234 35.555 39.2419 35.9491 39.2419H49.9113C50.6358 39.2419 51.2212 38.5186 51.2212 37.6264V37.6241Z" fill="white"/>
<path d="M16.9454 38.6223L27.1307 23.9809C27.7845 23.0413 27.3175 21.6353 26.4017 21.6646H16.2165C15.6675 21.6827 15.2278 22.4375 15.2278 23.2441V37.5633C15.2278 38.8769 16.3053 39.5416 16.9454 38.6223Z" fill="white"/>
</svg>
