<svg width="131" height="40" viewBox="0 0 131 40" fill="none" xmlns="http://www.w3.org/2000/svg">
<g clip-path="url(#clip0_1_93)">
<path d="M0 1.64912V15.9908C0 16.8831 0.599132 17.6064 1.3395 17.6064H15.2676C15.623 17.6064 15.9624 17.4351 16.213 17.1332L21.227 10.5809C21.6325 10.0897 21.6667 9.31005 21.3045 8.77153L16.2221 0.628417C15.967 0.252131 15.5865 0.0335693 15.1833 0.0335693H1.3395C0.599132 0.0335693 0 0.756851 0 1.64912Z" fill="white"/>
<path d="M34.4512 0.42584L23.5688 15.0672C22.8945 16.0068 23.3775 17.6381 24.3206 17.6088H35.2029C35.7702 17.5908 36.2212 16.6107 36.2212 15.804V1.48485C36.2212 0.171227 35.1095 -0.49347 34.4512 0.42584Z" fill="white"/>
<path d="M36.2212 37.6241V23.2824C36.2212 22.3902 35.6335 21.6669 34.9113 21.6669H20.8693C20.5208 21.6669 20.1882 21.8381 19.9422 22.14L14.8325 28.6924C14.4361 29.1836 14.4019 29.9632 14.7573 30.5017L19.9331 38.6471C20.1814 39.0234 20.555 39.2419 20.9491 39.2419H34.9113C35.6358 39.2419 36.2212 38.5186 36.2212 37.6264V37.6241Z" fill="white"/>
<path d="M1.94551 38.6223L12.1307 23.9809C12.7845 23.0413 12.3175 21.6353 11.4018 21.6646H1.21653C0.667511 21.6827 0.227844 22.4375 0.227844 23.2441V37.5633C0.227844 38.8769 1.30537 39.5416 1.94551 38.6223Z" fill="white"/>
</g>
<path d="M70.8488 28.4579C69.5448 28.4579 68.3938 28.2245 67.3957 27.7577C66.3976 27.2908 65.6168 26.6227 65.0534 25.7534C64.4899 24.8841 64.2082 23.8377 64.2082 22.6142V21.9381H67.3474V22.6142C67.3474 23.6284 67.6613 24.3931 68.2892 24.9083C68.917 25.4073 69.7702 25.6568 70.8488 25.6568C71.9435 25.6568 72.7564 25.4395 73.2877 25.0048C73.835 24.5702 74.1087 24.0148 74.1087 23.3387C74.1087 22.8718 73.9719 22.4935 73.6982 22.2037C73.4406 21.914 73.0543 21.6805 72.5391 21.5035C72.0401 21.3103 71.4283 21.1332 70.7039 20.9722L70.1485 20.8515C68.9894 20.5939 67.9913 20.2719 67.1542 19.8856C66.3332 19.4831 65.6973 18.9599 65.2466 18.316C64.8119 17.6721 64.5946 16.8349 64.5946 15.8046C64.5946 14.7744 64.8361 13.897 65.319 13.1726C65.8181 12.432 66.5103 11.8686 67.3957 11.4822C68.2972 11.0798 69.3516 10.8786 70.559 10.8786C71.7664 10.8786 72.8369 11.0878 73.7706 11.5064C74.7204 11.9088 75.461 12.5206 75.9922 13.3416C76.5396 14.1465 76.8132 15.1607 76.8132 16.3842V17.1086H73.674V16.3842C73.674 15.7403 73.5453 15.2251 73.2877 14.8387C73.0462 14.4363 72.692 14.1465 72.2252 13.9694C71.7583 13.7763 71.203 13.6797 70.559 13.6797C69.5931 13.6797 68.8767 13.8648 68.4099 14.2351C67.9591 14.5892 67.7338 15.0802 67.7338 15.7081C67.7338 16.1266 67.8384 16.4808 68.0477 16.7705C68.2731 17.0603 68.6031 17.3018 69.0377 17.495C69.4724 17.6881 70.0278 17.8572 70.7039 18.0021L71.2593 18.1228C72.4667 18.3804 73.5131 18.7104 74.3985 19.1129C75.3 19.5153 76.0003 20.0466 76.4993 20.7066C76.9984 21.3666 77.2479 22.2118 77.2479 23.2421C77.2479 24.2724 76.9823 25.1819 76.451 25.9707C75.9359 26.7435 75.1953 27.3552 74.2294 27.806C73.2796 28.2406 72.1528 28.4579 70.8488 28.4579ZM85.348 28.4579C84.189 28.4579 83.1345 28.2165 82.1847 27.7335C81.251 27.2506 80.5105 26.5503 79.9631 25.6327C79.4158 24.7151 79.1421 23.6043 79.1421 22.3003V21.9623C79.1421 20.6583 79.4158 19.5475 79.9631 18.6299C80.5105 17.7123 81.251 17.012 82.1847 16.5291C83.1345 16.0461 84.189 15.8046 85.348 15.8046C86.491 15.8046 87.473 16.0059 88.294 16.4083C89.1151 16.8108 89.7751 17.3662 90.2741 18.0745C90.7893 18.7667 91.1273 19.5556 91.2883 20.441L88.3423 21.0688C88.2779 20.5859 88.1331 20.1512 87.9077 19.7648C87.6823 19.3785 87.3603 19.0726 86.9418 18.8472C86.5393 18.6219 86.0322 18.5092 85.4205 18.5092C84.8087 18.5092 84.2534 18.646 83.7543 18.9197C83.2714 19.1772 82.885 19.5717 82.5952 20.1029C82.3216 20.618 82.1847 21.2539 82.1847 22.0106V22.252C82.1847 23.0087 82.3216 23.6526 82.5952 24.1838C82.885 24.699 83.2714 25.0934 83.7543 25.3671C84.2534 25.6246 84.8087 25.7534 85.4205 25.7534C86.3381 25.7534 87.0303 25.52 87.4972 25.0531C87.9801 24.5702 88.286 23.9424 88.4148 23.1696L91.3608 23.8699C91.1515 24.7231 90.7893 25.5039 90.2741 26.2122C89.7751 26.9044 89.1151 27.4518 88.294 27.8543C87.473 28.2567 86.491 28.4579 85.348 28.4579ZM99.5694 28.4579C98.3781 28.4579 97.3076 28.2165 96.3578 27.7335C95.408 27.2506 94.6594 26.5503 94.1121 25.6327C93.5647 24.7151 93.2911 23.6123 93.2911 22.3245V21.9381C93.2911 20.6502 93.5647 19.5475 94.1121 18.6299C94.6594 17.7123 95.408 17.012 96.3578 16.5291C97.3076 16.0461 98.3781 15.8046 99.5694 15.8046C100.761 15.8046 101.831 16.0461 102.781 16.5291C103.731 17.012 104.479 17.7123 105.027 18.6299C105.574 19.5475 105.848 20.6502 105.848 21.9381V22.3245C105.848 23.6123 105.574 24.7151 105.027 25.6327C104.479 26.5503 103.731 27.2506 102.781 27.7335C101.831 28.2165 100.761 28.4579 99.5694 28.4579ZM99.5694 25.7534C100.503 25.7534 101.276 25.4556 101.888 24.86C102.499 24.2482 102.805 23.3789 102.805 22.252V22.0106C102.805 20.8837 102.499 20.0224 101.888 19.4268C101.292 18.815 100.519 18.5092 99.5694 18.5092C98.6357 18.5092 97.863 18.815 97.2513 19.4268C96.6395 20.0224 96.3337 20.8837 96.3337 22.0106V22.252C96.3337 23.3789 96.6395 24.2482 97.2513 24.86C97.863 25.4556 98.6357 25.7534 99.5694 25.7534ZM108.656 28.1199V16.1427H111.651V17.495H112.085C112.262 17.012 112.552 16.6579 112.954 16.4325C113.373 16.2071 113.856 16.0944 114.403 16.0944H115.852V18.7989H114.355C113.582 18.7989 112.946 19.0082 112.447 19.4268C111.948 19.8292 111.699 20.4571 111.699 21.3103V28.1199H108.656ZM123.263 28.4579C122.072 28.4579 121.017 28.2084 120.1 27.7094C119.198 27.1942 118.49 26.4778 117.975 25.5602C117.476 24.6265 117.226 23.5318 117.226 22.2762V21.9864C117.226 20.7307 117.476 19.6441 117.975 18.7265C118.474 17.7928 119.174 17.0764 120.076 16.5774C120.977 16.0622 122.024 15.8046 123.215 15.8046C124.39 15.8046 125.412 16.0703 126.282 16.6015C127.151 17.1167 127.827 17.8411 128.31 18.7748C128.793 19.6924 129.034 20.7629 129.034 21.9864V23.0247H120.317C120.349 23.8458 120.655 24.5138 121.235 25.029C121.814 25.5441 122.523 25.8017 123.36 25.8017C124.213 25.8017 124.841 25.6166 125.243 25.2463C125.646 24.8761 125.952 24.4656 126.161 24.0148L128.648 25.3188C128.423 25.7373 128.093 26.1961 127.658 26.6952C127.24 27.1781 126.676 27.5967 125.968 27.9508C125.259 28.2889 124.358 28.4579 123.263 28.4579ZM120.341 20.7549H125.944C125.879 20.0627 125.597 19.5073 125.098 19.0887C124.615 18.6701 123.98 18.4609 123.191 18.4609C122.37 18.4609 121.718 18.6701 121.235 19.0887C120.752 19.5073 120.454 20.0627 120.341 20.7549Z" fill="white"/>
<defs>
<clipPath id="clip0_1_93">
<rect width="36.2213" height="39.2397" fill="white"/>
</clipPath>
</defs>
</svg>
