<svg width="67" height="70" viewBox="0 0 67 70" fill="none" xmlns="http://www.w3.org/2000/svg">
<path d="M7.46158 63.3388C6.15761 63.3388 5.00658 63.1054 4.00849 62.6385C3.01039 62.1717 2.22962 61.5036 1.66618 60.6343C1.10274 59.765 0.821015 58.7186 0.821015 57.4951V56.819H3.96019V57.4951C3.96019 58.5093 4.27411 59.274 4.90194 59.7891C5.52978 60.2882 6.38299 60.5377 7.46158 60.5377C8.55627 60.5377 9.36923 60.3204 9.90048 59.8857C10.4478 59.451 10.7215 58.8957 10.7215 58.2195C10.7215 57.7527 10.5847 57.3744 10.311 57.0846C10.0534 56.7948 9.66705 56.5614 9.15191 56.3843C8.65286 56.1911 8.04112 56.0141 7.31669 55.8531L6.7613 55.7323C5.60222 55.4748 4.60412 55.1528 3.76701 54.7664C2.946 54.364 2.31011 53.8408 1.85936 53.1968C1.4247 52.5529 1.20738 51.7158 1.20738 50.6855C1.20738 49.6552 1.44885 48.7779 1.9318 48.0534C2.43085 47.3129 3.12308 46.7495 4.00849 46.3631C4.90999 45.9606 5.96443 45.7594 7.17181 45.7594C8.37919 45.7594 9.44972 45.9687 10.3834 46.3872C11.3332 46.7897 12.0738 47.4014 12.605 48.2225C13.1523 49.0274 13.426 50.0416 13.426 51.265V51.9895H10.2868V51.265C10.2868 50.6211 10.1581 50.106 9.90048 49.7196C9.659 49.3171 9.30484 49.0274 8.83799 48.8503C8.37114 48.6571 7.81574 48.5605 7.17181 48.5605C6.20591 48.5605 5.48953 48.7457 5.02268 49.1159C4.57193 49.4701 4.34655 49.9611 4.34655 50.5889C4.34655 51.0075 4.45119 51.3616 4.66047 51.6514C4.88585 51.9412 5.21586 52.1826 5.65052 52.3758C6.08517 52.569 6.64056 52.738 7.31669 52.8829L7.87209 53.0037C9.07946 53.2612 10.1259 53.5913 11.0113 53.9937C11.9128 54.3962 12.613 54.9274 13.1121 55.5874C13.6111 56.2475 13.8607 57.0926 13.8607 58.1229C13.8607 59.1532 13.595 60.0628 13.0638 60.8516C12.5487 61.6243 11.8081 62.2361 10.8422 62.6868C9.89243 63.1215 8.76555 63.3388 7.46158 63.3388ZM21.9608 63.3388C20.8018 63.3388 19.7473 63.0973 18.7975 62.6144C17.8638 62.1314 17.1233 61.4311 16.5759 60.5135C16.0286 59.5959 15.7549 58.4851 15.7549 57.1812V56.8431C15.7549 55.5392 16.0286 54.4284 16.5759 53.5108C17.1233 52.5932 17.8638 51.8929 18.7975 51.4099C19.7473 50.927 20.8018 50.6855 21.9608 50.6855C23.1038 50.6855 24.0858 50.8867 24.9068 51.2892C25.7278 51.6916 26.3879 52.247 26.8869 52.9554C27.4021 53.6476 27.7401 54.4364 27.9011 55.3218L24.9551 55.9497C24.8907 55.4667 24.7458 55.0321 24.5205 54.6457C24.2951 54.2593 23.9731 53.9535 23.5546 53.7281C23.1521 53.5027 22.645 53.39 22.0333 53.39C21.4215 53.39 20.8661 53.5269 20.3671 53.8005C19.8842 54.0581 19.4978 54.4525 19.208 54.9838C18.9343 55.4989 18.7975 56.1348 18.7975 56.8914V57.1329C18.7975 57.8895 18.9343 58.5334 19.208 59.0647C19.4978 59.5798 19.8842 59.9742 20.3671 60.2479C20.8661 60.5055 21.4215 60.6343 22.0333 60.6343C22.9509 60.6343 23.6431 60.4009 24.11 59.934C24.5929 59.451 24.8988 58.8232 25.0276 58.0505L27.9736 58.7508C27.7643 59.604 27.4021 60.3848 26.8869 61.0931C26.3879 61.7853 25.7278 62.3327 24.9068 62.7351C24.0858 63.1376 23.1038 63.3388 21.9608 63.3388ZM36.1822 63.3388C34.9909 63.3388 33.9204 63.0973 32.9706 62.6144C32.0208 62.1314 31.2722 61.4311 30.7249 60.5135C30.1775 59.5959 29.9039 58.4932 29.9039 57.2053V56.819C29.9039 55.5311 30.1775 54.4284 30.7249 53.5108C31.2722 52.5932 32.0208 51.8929 32.9706 51.4099C33.9204 50.927 34.9909 50.6855 36.1822 50.6855C37.3735 50.6855 38.444 50.927 39.3938 51.4099C40.3436 51.8929 41.0922 52.5932 41.6395 53.5108C42.1869 54.4284 42.4606 55.5311 42.4606 56.819V57.2053C42.4606 58.4932 42.1869 59.5959 41.6395 60.5135C41.0922 61.4311 40.3436 62.1314 39.3938 62.6144C38.444 63.0973 37.3735 63.3388 36.1822 63.3388ZM36.1822 60.6343C37.1159 60.6343 37.8886 60.3365 38.5004 59.7408C39.1121 59.1291 39.418 58.2598 39.418 57.1329V56.8914C39.418 55.7645 39.1121 54.9033 38.5004 54.3076C37.9047 53.6959 37.132 53.39 36.1822 53.39C35.2485 53.39 34.4758 53.6959 33.864 54.3076C33.2523 54.9033 32.9464 55.7645 32.9464 56.8914V57.1329C32.9464 58.2598 33.2523 59.1291 33.864 59.7408C34.4758 60.3365 35.2485 60.6343 36.1822 60.6343ZM45.269 63.0007V51.0236H48.2633V52.3758H48.698C48.8751 51.8929 49.1648 51.5387 49.5673 51.3133C49.9858 51.088 50.4688 50.9753 51.0161 50.9753H52.465V53.6798H50.9678C50.1951 53.6798 49.5592 53.8891 49.0602 54.3076C48.5611 54.7101 48.3116 55.3379 48.3116 56.1911V63.0007H45.269ZM59.876 63.3388C58.6847 63.3388 57.6303 63.0893 56.7127 62.5902C55.8112 62.0751 55.1028 61.3587 54.5877 60.4411C54.0887 59.5074 53.8391 58.4127 53.8391 57.157V56.8673C53.8391 55.6116 54.0887 54.525 54.5877 53.6074C55.0868 52.6736 55.787 51.9573 56.6885 51.4582C57.59 50.9431 58.6364 50.6855 59.8277 50.6855C61.0029 50.6855 62.0251 50.9511 62.8944 51.4824C63.7638 51.9975 64.4399 52.7219 64.9228 53.6556C65.4058 54.5733 65.6473 55.6438 65.6473 56.8673V57.9056H56.93C56.9622 58.7266 57.2681 59.3947 57.8476 59.9099C58.4272 60.425 59.1355 60.6826 59.9726 60.6826C60.8258 60.6826 61.4536 60.4974 61.8561 60.1272C62.2586 59.7569 62.5644 59.3464 62.7737 58.8957L65.2609 60.1996C65.0355 60.6182 64.7055 61.077 64.2709 61.576C63.8523 62.059 63.2889 62.4775 62.5805 62.8317C61.8722 63.1698 60.9707 63.3388 59.876 63.3388ZM56.9542 55.6357H62.5564C62.492 54.9435 62.2103 54.3881 61.7112 53.9696C61.2283 53.551 60.5924 53.3417 59.8036 53.3417C58.9825 53.3417 58.3306 53.551 57.8476 53.9696C57.3647 54.3881 57.0668 54.9435 56.9542 55.6357Z" fill="#181818"/>
<path d="M15 1.64986V15.9916C15 16.8838 15.5991 17.6071 16.3395 17.6071H30.2676C30.623 17.6071 30.9624 17.4359 31.213 17.1339L36.227 10.5816C36.6325 10.0904 36.6667 9.31078 36.3045 8.77226L31.2221 0.62915C30.967 0.252863 30.5865 0.0343018 30.1833 0.0343018H16.3395C15.5991 0.0343018 15 0.757583 15 1.64986Z" fill="#181818"/>
<path d="M49.4512 0.426573L38.5688 15.0679C37.8945 16.0075 38.3775 17.6389 39.3206 17.6096H50.2029C50.7702 17.5915 51.2212 16.6114 51.2212 15.8047V1.48558C51.2212 0.17196 50.1095 -0.492738 49.4512 0.426573Z" fill="#181818"/>
<path d="M51.2212 37.6249V23.2832C51.2212 22.3909 50.6335 21.6676 49.9113 21.6676H35.8693C35.5208 21.6676 35.1882 21.8388 34.9422 22.1408L29.8325 28.6931C29.4361 29.1843 29.4019 29.9639 29.7573 30.5024L34.9331 38.6478C35.1814 39.0241 35.555 39.2427 35.9491 39.2427H49.9113C50.6358 39.2427 51.2212 38.5194 51.2212 37.6271V37.6249Z" fill="#181818"/>
<path d="M16.9454 38.623L27.1307 23.9817C27.7845 23.0421 27.3175 21.6361 26.4017 21.6654H16.2165C15.6675 21.6834 15.2278 22.4382 15.2278 23.2449V37.564C15.2278 38.8777 16.3053 39.5424 16.9454 38.623Z" fill="#181818"/>
</svg>
